<?xml version="1.0" encoding="utf-8"?>
<!-- Generator: Adobe Illustrator 23.1.1, SVG Export Plug-In . SVG Version: 6.00 Build 0)  -->
<svg version="1.1" id="レイヤー_1" xmlns="http://www.w3.org/2000/svg" xmlns:xlink="http://www.w3.org/1999/xlink" x="0px"
	 y="0px" viewBox="0 0 35.72 45.5" style="enable-background:new 0 0 35.72 45.5;" xml:space="preserve">
<g>
	<path d="M26.19,41.02c-2.6,2.48-6.08,3.76-10.41,3.84c-3.47-0.08-6.37-0.93-8.69-2.54c-2.36-1.55-4.08-3.35-5.15-5.39
		c-0.32-0.67-0.62-1.3-0.88-1.91c-0.24-0.62-0.44-1.41-0.61-2.36C0.15,30.89,0,27.48,0,22.43c0-5.13,0.15-8.56,0.45-10.29
		C0.78,10.4,1.27,9,1.94,7.93c1.07-2.04,2.79-3.85,5.15-5.45C9.4,0.87,12.3,0.04,15.77,0c3.51,0.04,6.44,0.87,8.78,2.48
		c2.32,1.59,4,3.41,5.03,5.45c0.75,1.07,1.26,2.47,1.54,4.21c0.26,1.74,0.39,5.17,0.39,10.29c0,4.58-0.1,7.78-0.3,9.6
		c-0.26,1.82-0.7,3.23-1.3,4.24l5.81,4.63l-3.97,4.6L26.19,41.02z M15.08,32.15l3.97-4.57l5.15,4.09c0.42-1.49,0.64-4.57,0.64-9.23
		c0-4.34-0.15-7.3-0.45-8.87c-0.32-1.49-0.92-2.71-1.79-3.66c-0.67-0.91-1.55-1.67-2.66-2.27c-1.17-0.58-2.55-0.9-4.15-0.94
		c-1.57,0.04-2.93,0.35-4.06,0.94C10.57,8.23,9.64,8.99,8.93,9.9c-0.87,0.95-1.44,2.17-1.73,3.66c-0.32,1.57-0.48,4.53-0.48,8.87
		c0,4.34,0.16,7.28,0.48,8.81c0.28,1.53,0.86,2.78,1.73,3.72c0.71,0.91,1.63,1.65,2.79,2.21c1.13,0.67,2.48,1,4.06,1
		c2.06,0,3.7-0.51,4.93-1.54L15.08,32.15z"/>
</g>
<g>
</g>
<g>
</g>
<g>
</g>
<g>
</g>
<g>
</g>
<g>
</g>
<g>
</g>
<g>
</g>
<g>
</g>
<g>
</g>
<g>
</g>
<g>
</g>
<g>
</g>
<g>
</g>
<g>
</g>
</svg>
